<mxfile host="app.diagrams.net" modified="2024-03-11T15:38:41.459Z" agent="Mozilla/5.0 (Windows NT 10.0; Win64; x64) AppleWebKit/537.36 (KHTML, like Gecko) Chrome/122.0.0.0 Safari/537.36" etag="3YgZaI9Hl4Bn9VFQdGlv" version="24.0.2" type="github">
  <diagram name="Page-1" id="c7488fd3-1785-93aa-aadb-54a6760d102a">
    <mxGraphModel dx="4185" dy="1050" grid="1" gridSize="10" guides="1" tooltips="1" connect="1" arrows="1" fold="1" page="1" pageScale="1" pageWidth="1100" pageHeight="850" background="none" math="0" shadow="0">
      <root>
        <mxCell id="0" />
        <mxCell id="1" parent="0" />
        <mxCell id="2b4e8129b02d487f-1" value="Pool" style="swimlane;html=1;childLayout=stackLayout;horizontal=1;startSize=20;horizontalStack=0;rounded=0;shadow=0;labelBackgroundColor=none;strokeWidth=1;fontFamily=Verdana;fontSize=14;align=center;strokeColor=#333333;fontColor=#FFFFFF;" parent="1" vertex="1">
          <mxGeometry x="-620" y="30" width="3180" height="1010" as="geometry" />
        </mxCell>
        <mxCell id="2b4e8129b02d487f-24" style="edgeStyle=orthogonalEdgeStyle;rounded=0;html=1;labelBackgroundColor=none;startArrow=none;startFill=0;startSize=5;endArrow=classicThin;endFill=1;endSize=5;jettySize=auto;orthogonalLoop=1;strokeWidth=1;fontFamily=Verdana;fontSize=14;strokeColor=#333333;" parent="2b4e8129b02d487f-1" source="2b4e8129b02d487f-6" target="2b4e8129b02d487f-12" edge="1">
          <mxGeometry relative="1" as="geometry">
            <Array as="points">
              <mxPoint x="150" y="200" />
              <mxPoint x="150" y="200" />
            </Array>
          </mxGeometry>
        </mxCell>
        <mxCell id="2b4e8129b02d487f-26" style="edgeStyle=orthogonalEdgeStyle;rounded=0;html=1;labelBackgroundColor=none;startArrow=none;startFill=0;startSize=5;endArrow=classicThin;endFill=1;endSize=5;jettySize=auto;orthogonalLoop=1;strokeWidth=1;fontFamily=Verdana;fontSize=14;entryX=0;entryY=0.5;entryDx=0;entryDy=0;exitX=1;exitY=0.25;exitDx=0;exitDy=0;strokeColor=#333333;" parent="2b4e8129b02d487f-1" source="2b4e8129b02d487f-12" target="2b4e8129b02d487f-7" edge="1">
          <mxGeometry relative="1" as="geometry">
            <mxPoint x="280" y="97" as="targetPoint" />
            <Array as="points">
              <mxPoint x="280" y="688" />
              <mxPoint x="280" y="160" />
            </Array>
          </mxGeometry>
        </mxCell>
        <mxCell id="DA61yKmNvIKPyCM13obE-10" style="edgeStyle=orthogonalEdgeStyle;rounded=0;orthogonalLoop=1;jettySize=auto;html=1;entryX=0.5;entryY=0;entryDx=0;entryDy=0;strokeColor=#333333;fontSize=14;" parent="2b4e8129b02d487f-1" source="2b4e8129b02d487f-7" target="DA61yKmNvIKPyCM13obE-8" edge="1">
          <mxGeometry relative="1" as="geometry">
            <mxPoint x="360" y="400" as="targetPoint" />
            <Array as="points">
              <mxPoint x="360" y="675" />
            </Array>
          </mxGeometry>
        </mxCell>
        <mxCell id="DA61yKmNvIKPyCM13obE-36" value="" style="edgeStyle=orthogonalEdgeStyle;rounded=0;orthogonalLoop=1;jettySize=auto;html=1;strokeColor=#333333;fontSize=14;" parent="2b4e8129b02d487f-1" source="DA61yKmNvIKPyCM13obE-22" target="DA61yKmNvIKPyCM13obE-35" edge="1">
          <mxGeometry relative="1" as="geometry">
            <Array as="points">
              <mxPoint x="630" y="363" />
              <mxPoint x="629" y="363" />
            </Array>
          </mxGeometry>
        </mxCell>
        <mxCell id="DA61yKmNvIKPyCM13obE-41" style="edgeStyle=orthogonalEdgeStyle;rounded=0;orthogonalLoop=1;jettySize=auto;html=1;entryX=0.5;entryY=0;entryDx=0;entryDy=0;entryPerimeter=0;strokeColor=#333333;fontSize=14;" parent="2b4e8129b02d487f-1" source="DA61yKmNvIKPyCM13obE-35" target="DA61yKmNvIKPyCM13obE-46" edge="1">
          <mxGeometry relative="1" as="geometry">
            <mxPoint x="776" y="460" as="targetPoint" />
          </mxGeometry>
        </mxCell>
        <mxCell id="DA61yKmNvIKPyCM13obE-51" value="" style="edgeStyle=orthogonalEdgeStyle;rounded=0;orthogonalLoop=1;jettySize=auto;html=1;strokeColor=#333333;fontSize=14;" parent="2b4e8129b02d487f-1" source="DA61yKmNvIKPyCM13obE-28" target="DA61yKmNvIKPyCM13obE-50" edge="1">
          <mxGeometry relative="1" as="geometry" />
        </mxCell>
        <mxCell id="DA61yKmNvIKPyCM13obE-53" value="" style="edgeStyle=orthogonalEdgeStyle;rounded=0;orthogonalLoop=1;jettySize=auto;html=1;strokeColor=#333333;fontSize=14;" parent="2b4e8129b02d487f-1" source="DA61yKmNvIKPyCM13obE-50" target="DA61yKmNvIKPyCM13obE-52" edge="1">
          <mxGeometry relative="1" as="geometry" />
        </mxCell>
        <mxCell id="DA61yKmNvIKPyCM13obE-93" value="" style="edgeStyle=orthogonalEdgeStyle;rounded=0;orthogonalLoop=1;jettySize=auto;html=1;strokeColor=#333333;fontSize=14;" parent="2b4e8129b02d487f-1" source="DA61yKmNvIKPyCM13obE-88" target="DA61yKmNvIKPyCM13obE-92" edge="1">
          <mxGeometry relative="1" as="geometry" />
        </mxCell>
        <mxCell id="DA61yKmNvIKPyCM13obE-95" value="" style="edgeStyle=orthogonalEdgeStyle;rounded=0;orthogonalLoop=1;jettySize=auto;html=1;strokeColor=#333333;fontSize=14;" parent="2b4e8129b02d487f-1" source="DA61yKmNvIKPyCM13obE-92" target="DA61yKmNvIKPyCM13obE-94" edge="1">
          <mxGeometry relative="1" as="geometry" />
        </mxCell>
        <mxCell id="DA61yKmNvIKPyCM13obE-100" value="" style="edgeStyle=orthogonalEdgeStyle;rounded=0;orthogonalLoop=1;jettySize=auto;html=1;entryX=0;entryY=0.5;entryDx=0;entryDy=0;strokeColor=#333333;fontSize=14;" parent="2b4e8129b02d487f-1" target="DA61yKmNvIKPyCM13obE-90" edge="1">
          <mxGeometry relative="1" as="geometry">
            <mxPoint x="2568" y="243.75" as="targetPoint" />
            <Array as="points">
              <mxPoint x="2418" y="640" />
              <mxPoint x="2418" y="270" />
              <mxPoint x="2600" y="270" />
            </Array>
            <mxPoint x="2361" y="640" as="sourcePoint" />
          </mxGeometry>
        </mxCell>
        <object label="&lt;font style=&quot;font-size: 28px;&quot;&gt;BENEFICIÁRIO&lt;/font&gt;" id="2b4e8129b02d487f-2">
          <mxCell style="swimlane;html=1;startSize=40;horizontal=0;strokeColor=#d6b656;fontSize=14;fillColor=#fff2cc;" parent="2b4e8129b02d487f-1" vertex="1">
            <mxGeometry y="20" width="3180" height="450" as="geometry" />
          </mxCell>
        </object>
        <mxCell id="2b4e8129b02d487f-18" style="edgeStyle=orthogonalEdgeStyle;rounded=0;html=1;labelBackgroundColor=none;startArrow=none;startFill=0;startSize=5;endArrow=classicThin;endFill=1;endSize=5;jettySize=auto;orthogonalLoop=1;strokeWidth=1;fontFamily=Verdana;fontSize=14;strokeColor=#333333;" parent="2b4e8129b02d487f-2" source="2b4e8129b02d487f-5" target="2b4e8129b02d487f-6" edge="1">
          <mxGeometry relative="1" as="geometry" />
        </mxCell>
        <mxCell id="2b4e8129b02d487f-5" value="" style="ellipse;whiteSpace=wrap;html=1;rounded=0;shadow=0;labelBackgroundColor=none;strokeWidth=8;fontFamily=Verdana;fontSize=14;align=center;strokeColor=#004D49;" parent="2b4e8129b02d487f-2" vertex="1">
          <mxGeometry x="51" y="10" width="40" height="40" as="geometry" />
        </mxCell>
        <mxCell id="2b4e8129b02d487f-6" value="&lt;font style=&quot;font-size: 14px;&quot;&gt;BENEFICIÁRIO ACESSA O BOOT&lt;/font&gt;" style="rounded=1;whiteSpace=wrap;html=1;shadow=0;labelBackgroundColor=none;strokeWidth=1;fontFamily=Verdana;fontSize=14;align=center;strokeColor=#333333;fontStyle=1" parent="2b4e8129b02d487f-2" vertex="1">
          <mxGeometry x="104" y="102" width="136" height="88" as="geometry" />
        </mxCell>
        <mxCell id="2b4e8129b02d487f-7" value="&lt;font style=&quot;font-size: 14px;&quot;&gt;BENEFICIÁRIO INFORMA OS DADOS INICIAIS&lt;/font&gt;" style="rounded=1;whiteSpace=wrap;html=1;shadow=0;labelBackgroundColor=none;strokeWidth=1;fontFamily=Verdana;fontSize=14;align=center;strokeColor=#333333;fontStyle=1" parent="2b4e8129b02d487f-2" vertex="1">
          <mxGeometry x="310" y="100" width="150" height="80" as="geometry" />
        </mxCell>
        <mxCell id="DA61yKmNvIKPyCM13obE-35" value="&lt;font style=&quot;font-size: 14px;&quot;&gt;INFORMA A DATA DE NASCIMENTO&lt;/font&gt;" style="whiteSpace=wrap;html=1;rounded=1;strokeColor=#333333;strokeWidth=1;fontStyle=1;fontSize=14;" parent="2b4e8129b02d487f-2" vertex="1">
          <mxGeometry x="550" y="101.5" width="160" height="78.5" as="geometry" />
        </mxCell>
        <mxCell id="DA61yKmNvIKPyCM13obE-50" value="&lt;font style=&quot;font-size: 14px;&quot;&gt;SELECIONA &lt;font color=&quot;#4b7d74&quot;&gt;&quot;GERAR CARTÃO VIRTUAL + TOKEN&quot;&lt;/font&gt;&lt;/font&gt;" style="whiteSpace=wrap;html=1;rounded=1;strokeColor=#333333;strokeWidth=1;fontStyle=1;fontSize=14;" parent="2b4e8129b02d487f-2" vertex="1">
          <mxGeometry x="830" y="80" width="170" height="80" as="geometry" />
        </mxCell>
        <mxCell id="DA61yKmNvIKPyCM13obE-149" value="" style="edgeStyle=orthogonalEdgeStyle;rounded=0;orthogonalLoop=1;jettySize=auto;html=1;strokeColor=#333333;entryX=0;entryY=0.5;entryDx=0;entryDy=0;fontSize=14;" parent="2b4e8129b02d487f-2" source="DA61yKmNvIKPyCM13obE-90" target="H7AT8vPeeisbSveYKysI-2" edge="1">
          <mxGeometry relative="1" as="geometry">
            <mxPoint x="2930" y="290" as="targetPoint" />
            <Array as="points">
              <mxPoint x="2880" y="265" />
              <mxPoint x="2880" y="290" />
            </Array>
          </mxGeometry>
        </mxCell>
        <mxCell id="DA61yKmNvIKPyCM13obE-90" value="&lt;font style=&quot;font-size: 14px;&quot;&gt;RECEBE O TOKEN E INFORMA O PRESTADOR&lt;/font&gt;" style="whiteSpace=wrap;html=1;fontSize=14;fontFamily=Verdana;strokeWidth=1;rounded=1;shadow=0;labelBackgroundColor=none;strokeColor=#333333;fontStyle=1" parent="2b4e8129b02d487f-2" vertex="1">
          <mxGeometry x="2617" y="202" width="159" height="95" as="geometry" />
        </mxCell>
        <mxCell id="DA61yKmNvIKPyCM13obE-92" value="&lt;font style=&quot;font-size: 14px;&quot;&gt;INFORMA A DATA DE NASCIMENTO&lt;/font&gt;" style="whiteSpace=wrap;html=1;fontSize=14;fontFamily=Verdana;strokeWidth=1;rounded=1;shadow=0;labelBackgroundColor=none;strokeColor=#333333;fontStyle=1" parent="2b4e8129b02d487f-2" vertex="1">
          <mxGeometry x="2018" y="79.99999999999977" width="120" height="60" as="geometry" />
        </mxCell>
        <mxCell id="DA61yKmNvIKPyCM13obE-107" value="" style="edgeStyle=orthogonalEdgeStyle;rounded=0;orthogonalLoop=1;jettySize=auto;html=1;entryX=0;entryY=0.5;entryDx=0;entryDy=0;entryPerimeter=0;strokeColor=#333333;fontSize=14;" parent="2b4e8129b02d487f-2" source="DA61yKmNvIKPyCM13obE-103" target="DA61yKmNvIKPyCM13obE-105" edge="1">
          <mxGeometry relative="1" as="geometry">
            <mxPoint x="1532" y="129.99999999999977" as="targetPoint" />
            <Array as="points">
              <mxPoint x="1460" y="153" />
              <mxPoint x="1460" y="153" />
            </Array>
          </mxGeometry>
        </mxCell>
        <mxCell id="DA61yKmNvIKPyCM13obE-103" value="&lt;font style=&quot;font-size: 14px;&quot;&gt;ENVIA A RESPOSTA&lt;/font&gt;" style="whiteSpace=wrap;html=1;fontSize=14;fontFamily=Verdana;strokeWidth=1;rounded=1;shadow=0;labelBackgroundColor=none;strokeColor=#333333;fontStyle=1" parent="2b4e8129b02d487f-2" vertex="1">
          <mxGeometry x="1332" y="117.99999999999977" width="120" height="60" as="geometry" />
        </mxCell>
        <mxCell id="DA61yKmNvIKPyCM13obE-111" value="" style="edgeStyle=orthogonalEdgeStyle;rounded=0;orthogonalLoop=1;jettySize=auto;html=1;exitX=0.5;exitY=1;exitDx=0;exitDy=0;exitPerimeter=0;strokeColor=#333333;fontSize=14;" parent="2b4e8129b02d487f-2" source="DA61yKmNvIKPyCM13obE-105" target="DA61yKmNvIKPyCM13obE-110" edge="1">
          <mxGeometry relative="1" as="geometry">
            <Array as="points">
              <mxPoint x="1580" y="255" />
            </Array>
          </mxGeometry>
        </mxCell>
        <mxCell id="Ahk2WvtnSABUMaK_UGT0-1" value="" style="edgeStyle=orthogonalEdgeStyle;rounded=0;orthogonalLoop=1;jettySize=auto;html=1;exitX=0.5;exitY=0;exitDx=0;exitDy=0;exitPerimeter=0;entryX=0;entryY=0.75;entryDx=0;entryDy=0;" parent="2b4e8129b02d487f-2" source="DA61yKmNvIKPyCM13obE-105" target="DA61yKmNvIKPyCM13obE-108" edge="1">
          <mxGeometry relative="1" as="geometry">
            <mxPoint x="1590" y="130" as="sourcePoint" />
            <mxPoint x="1630" y="90" as="targetPoint" />
            <Array as="points">
              <mxPoint x="1580" y="138" />
              <mxPoint x="1580" y="90" />
            </Array>
          </mxGeometry>
        </mxCell>
        <mxCell id="DA61yKmNvIKPyCM13obE-105" value="&lt;span style=&quot;color: rgba(0, 0, 0, 0); font-family: monospace; font-size: 14px; text-align: start; text-wrap: nowrap;&quot;&gt;%3CmxGraphModel%3E%3Croot%3E%3CmxCell%20id%3D%220%22%2F%3E%3CmxCell%20id%3D%221%22%20parent%3D%220%22%2F%3E%3CmxCell%20id%3D%222%22%20value%3D%22N%C3%83O%22%20style%3D%22text%3Bhtml%3D1%3Balign%3Dcenter%3BverticalAlign%3Dmiddle%3BwhiteSpace%3Dwrap%3Brounded%3D0%3B%22%20vertex%3D%221%22%20parent%3D%221%22%3E%3CmxGeometry%20x%3D%22-16%22%20y%3D%22525%22%20width%3D%2260%22%20height%3D%2230%22%20as%3D%22geometry%22%2F%3E%3C%2FmxCell%3E%3C%2Froot%3E%3C%2FmxGraphModel%3E&lt;/span&gt;" style="strokeWidth=1;html=1;shape=mxgraph.flowchart.decision;whiteSpace=wrap;rounded=1;shadow=0;labelBackgroundColor=none;fontFamily=Verdana;fontSize=14;align=center;strokeColor=#333333;fillColor=#FFE196;" parent="2b4e8129b02d487f-2" vertex="1">
          <mxGeometry x="1565" y="137.99999999999977" width="30" height="30" as="geometry" />
        </mxCell>
        <mxCell id="DA61yKmNvIKPyCM13obE-108" value="&lt;font style=&quot;font-size: 14px;&quot;&gt;SELECIONA O DEPENDENTE&lt;/font&gt;" style="whiteSpace=wrap;html=1;fontSize=14;fontFamily=Verdana;strokeWidth=1;rounded=1;shadow=0;labelBackgroundColor=none;strokeColor=#333333;fontStyle=1" parent="2b4e8129b02d487f-2" vertex="1">
          <mxGeometry x="1640" y="31" width="150" height="79" as="geometry" />
        </mxCell>
        <mxCell id="DA61yKmNvIKPyCM13obE-124" value="" style="edgeStyle=orthogonalEdgeStyle;rounded=0;orthogonalLoop=1;jettySize=auto;html=1;exitX=0.5;exitY=1;exitDx=0;exitDy=0;strokeColor=#333333;fontSize=14;" parent="2b4e8129b02d487f-2" source="DA61yKmNvIKPyCM13obE-110" target="DA61yKmNvIKPyCM13obE-121" edge="1">
          <mxGeometry relative="1" as="geometry">
            <Array as="points">
              <mxPoint x="1673" y="290" />
            </Array>
          </mxGeometry>
        </mxCell>
        <mxCell id="DA61yKmNvIKPyCM13obE-110" value="&lt;font style=&quot;font-size: 14px;&quot;&gt;TITULAR PASSOU PELO DOUBLE CHECK?&lt;/font&gt;" style="whiteSpace=wrap;html=1;fontSize=14;fontFamily=Verdana;strokeWidth=1;rounded=1;shadow=0;labelBackgroundColor=none;strokeColor=#333333;fontStyle=1" parent="2b4e8129b02d487f-2" vertex="1">
          <mxGeometry x="1625" y="220" width="155" height="70" as="geometry" />
        </mxCell>
        <mxCell id="DA61yKmNvIKPyCM13obE-121" value="&lt;span style=&quot;color: rgba(0, 0, 0, 0); font-family: monospace; font-size: 14px; text-align: start; text-wrap: nowrap;&quot;&gt;%3CmxGraphModel%3E%3Croot%3E%3CmxCell%20id%3D%220%22%2F%3E%3CmxCell%20id%3D%221%22%20parent%3D%220%22%2F%3E%3CmxCell%20id%3D%222%22%20value%3D%22N%C3%83O%22%20style%3D%22text%3Bhtml%3D1%3Balign%3Dcenter%3BverticalAlign%3Dmiddle%3BwhiteSpace%3Dwrap%3Brounded%3D0%3B%22%20vertex%3D%221%22%20parent%3D%221%22%3E%3CmxGeometry%20x%3D%22-16%22%20y%3D%22525%22%20width%3D%2260%22%20height%3D%2230%22%20as%3D%22geometry%22%2F%3E%3C%2FmxCell%3E%3C%2Froot%3E%3C%2FmxGraphModel%3E&lt;/span&gt;" style="strokeWidth=1;html=1;shape=mxgraph.flowchart.decision;whiteSpace=wrap;rounded=1;shadow=0;labelBackgroundColor=none;fontFamily=Verdana;fontSize=14;align=center;strokeColor=#333333;fillColor=#FFE196;" parent="2b4e8129b02d487f-2" vertex="1">
          <mxGeometry x="1658" y="354.9999999999998" width="30" height="30" as="geometry" />
        </mxCell>
        <mxCell id="DA61yKmNvIKPyCM13obE-145" value="DEPENDENTE" style="text;html=1;align=center;verticalAlign=middle;whiteSpace=wrap;rounded=0;fillColor=#CCFF99;fontStyle=1;strokeColor=#333333;fontSize=14;" parent="2b4e8129b02d487f-2" vertex="1">
          <mxGeometry x="1464" y="61" width="111" height="30" as="geometry" />
        </mxCell>
        <mxCell id="DA61yKmNvIKPyCM13obE-214" value="SIM" style="text;color=blue;html=1;align=center;verticalAlign=middle;whiteSpace=wrap;rounded=0;fillColor=#CCFFFF;fontColor=#0000FF;fontStyle=1;labelBackgroundColor=none;strokeColor=#333333;fontSize=14;" parent="2b4e8129b02d487f-2" vertex="1">
          <mxGeometry x="1697" y="330" width="36" height="30" as="geometry" />
        </mxCell>
        <mxCell id="DA61yKmNvIKPyCM13obE-215" value="NÃO" style="text;html=1;align=center;verticalAlign=middle;whiteSpace=wrap;rounded=0;fillColor=#FFCCCC;fontStyle=1;strokeColor=#333333;fontSize=14;fontColor=#FF0000;" parent="2b4e8129b02d487f-2" vertex="1">
          <mxGeometry x="1628" y="408" width="35" height="30" as="geometry" />
        </mxCell>
        <mxCell id="H7AT8vPeeisbSveYKysI-2" value="" style="ellipse;whiteSpace=wrap;html=1;rounded=0;shadow=0;labelBackgroundColor=none;strokeWidth=1;fontFamily=Verdana;fontSize=14;align=center;fillColor=#004d49;strokeColor=#333333;" parent="2b4e8129b02d487f-2" vertex="1">
          <mxGeometry x="2940" y="269" width="40" height="40" as="geometry" />
        </mxCell>
        <mxCell id="Ahk2WvtnSABUMaK_UGT0-10" value="&lt;b&gt;***Criar a opção no Menu&lt;/b&gt;" style="rounded=0;whiteSpace=wrap;html=1;fillColor=#fff2cc;strokeColor=#d6b656;" parent="2b4e8129b02d487f-2" vertex="1">
          <mxGeometry x="950" y="20" width="130" height="71" as="geometry" />
        </mxCell>
        <mxCell id="Ahk2WvtnSABUMaK_UGT0-11" value="&lt;b&gt;Caso o beneficiário possua mais de um contrato, ele deverá selecionar o desejado.&lt;/b&gt;" style="rounded=0;whiteSpace=wrap;html=1;fillColor=#fff2cc;strokeColor=#d6b656;" parent="2b4e8129b02d487f-2" vertex="1">
          <mxGeometry x="470" y="167" width="148" height="130" as="geometry" />
        </mxCell>
        <mxCell id="DA61yKmNvIKPyCM13obE-104" value="" style="edgeStyle=orthogonalEdgeStyle;rounded=0;orthogonalLoop=1;jettySize=auto;html=1;strokeColor=#333333;fontSize=14;" parent="2b4e8129b02d487f-1" source="DA61yKmNvIKPyCM13obE-73" target="DA61yKmNvIKPyCM13obE-103" edge="1">
          <mxGeometry relative="1" as="geometry" />
        </mxCell>
        <mxCell id="DA61yKmNvIKPyCM13obE-120" value="" style="edgeStyle=orthogonalEdgeStyle;rounded=0;orthogonalLoop=1;jettySize=auto;html=1;exitX=1;exitY=0.75;exitDx=0;exitDy=0;strokeColor=#333333;fontSize=14;" parent="2b4e8129b02d487f-1" source="DA61yKmNvIKPyCM13obE-108" target="DA61yKmNvIKPyCM13obE-88" edge="1">
          <mxGeometry relative="1" as="geometry">
            <mxPoint x="1929" y="715" as="targetPoint" />
            <Array as="points">
              <mxPoint x="1929" y="110" />
            </Array>
            <mxPoint x="1780" y="-9" as="sourcePoint" />
          </mxGeometry>
        </mxCell>
        <mxCell id="DA61yKmNvIKPyCM13obE-127" value="" style="edgeStyle=orthogonalEdgeStyle;rounded=0;orthogonalLoop=1;jettySize=auto;html=1;strokeColor=#333333;fontSize=14;exitX=1;exitY=0.5;exitDx=0;exitDy=0;exitPerimeter=0;entryX=0.5;entryY=1;entryDx=0;entryDy=0;" parent="2b4e8129b02d487f-1" target="DA61yKmNvIKPyCM13obE-94" edge="1">
          <mxGeometry relative="1" as="geometry">
            <mxPoint x="2330" y="710" as="targetPoint" />
            <Array as="points">
              <mxPoint x="2186" y="390" />
              <mxPoint x="2186" y="740" />
              <mxPoint x="2323" y="740" />
            </Array>
            <mxPoint x="1684" y="389.9999999999998" as="sourcePoint" />
          </mxGeometry>
        </mxCell>
        <mxCell id="DA61yKmNvIKPyCM13obE-133" value="" style="edgeStyle=orthogonalEdgeStyle;rounded=0;orthogonalLoop=1;jettySize=auto;html=1;strokeColor=#333333;fontSize=14;" parent="2b4e8129b02d487f-1" source="DA61yKmNvIKPyCM13obE-121" target="DA61yKmNvIKPyCM13obE-88" edge="1">
          <mxGeometry relative="1" as="geometry">
            <mxPoint x="890" y="440" as="sourcePoint" />
            <mxPoint x="1245" y="850" as="targetPoint" />
            <Array as="points">
              <mxPoint x="1673" y="890" />
              <mxPoint x="1938" y="890" />
            </Array>
          </mxGeometry>
        </mxCell>
        <mxCell id="2b4e8129b02d487f-3" value="&lt;font style=&quot;font-size: 28px;&quot;&gt;BOOT&lt;/font&gt;" style="swimlane;html=1;startSize=40;horizontal=0;strokeColor=#82b366;fontSize=14;fillColor=#004D49;fontColor=#f4f0f0;" parent="2b4e8129b02d487f-1" vertex="1">
          <mxGeometry y="470" width="3180" height="510" as="geometry" />
        </mxCell>
        <mxCell id="2b4e8129b02d487f-12" value="&lt;font style=&quot;font-size: 14px;&quot;&gt;SOLICITA NOME/CPF OU CARTÃO&lt;/font&gt;" style="rounded=1;whiteSpace=wrap;html=1;shadow=0;labelBackgroundColor=none;strokeWidth=1;fontFamily=Verdana;fontSize=14;align=center;strokeColor=#333333;fontStyle=1" parent="2b4e8129b02d487f-3" vertex="1">
          <mxGeometry x="95" y="200" width="135" height="73" as="geometry" />
        </mxCell>
        <mxCell id="DA61yKmNvIKPyCM13obE-29" style="edgeStyle=orthogonalEdgeStyle;rounded=0;orthogonalLoop=1;jettySize=auto;html=1;exitX=0.5;exitY=1;exitDx=0;exitDy=0;exitPerimeter=0;entryX=0.5;entryY=1;entryDx=0;entryDy=0;entryPerimeter=0;strokeColor=#333333;fontSize=14;" parent="2b4e8129b02d487f-3" source="2b4e8129b02d487f-13" target="DA61yKmNvIKPyCM13obE-46" edge="1">
          <mxGeometry relative="1" as="geometry">
            <mxPoint x="736" y="172" as="targetPoint" />
            <Array as="points">
              <mxPoint x="486" y="270" />
              <mxPoint x="788" y="270" />
            </Array>
          </mxGeometry>
        </mxCell>
        <mxCell id="2b4e8129b02d487f-13" value="&lt;span style=&quot;color: rgba(0, 0, 0, 0); font-family: monospace; font-size: 14px; text-align: start; text-wrap: nowrap;&quot;&gt;%3CmxGraphModel%3E%3Croot%3E%3CmxCell%20id%3D%220%22%2F%3E%3CmxCell%20id%3D%221%22%20parent%3D%220%22%2F%3E%3CmxCell%20id%3D%222%22%20value%3D%22N%C3%83O%22%20style%3D%22text%3Bhtml%3D1%3Balign%3Dcenter%3BverticalAlign%3Dmiddle%3BwhiteSpace%3Dwrap%3Brounded%3D0%3B%22%20vertex%3D%221%22%20parent%3D%221%22%3E%3CmxGeometry%20x%3D%22-16%22%20y%3D%22525%22%20width%3D%2260%22%20height%3D%2230%22%20as%3D%22geometry%22%2F%3E%3C%2FmxCell%3E%3C%2Froot%3E%3C%2FmxGraphModel%3E&lt;/span&gt;" style="strokeWidth=1;html=1;shape=mxgraph.flowchart.decision;whiteSpace=wrap;rounded=1;shadow=0;labelBackgroundColor=none;fontFamily=Verdana;fontSize=14;align=center;strokeColor=#d6b656;fillColor=#fff2cc;" parent="2b4e8129b02d487f-3" vertex="1">
          <mxGeometry x="471" y="204.99999999999991" width="30" height="30" as="geometry" />
        </mxCell>
        <mxCell id="DA61yKmNvIKPyCM13obE-8" value="&lt;font style=&quot;font-size: 14px;&quot;&gt;BENEF. POSSUI MAIS DE UM CONTRATO&lt;/font&gt;" style="rounded=1;whiteSpace=wrap;html=1;strokeColor=#333333;strokeWidth=1;fontStyle=1;fontSize=14;" parent="2b4e8129b02d487f-3" vertex="1">
          <mxGeometry x="300" y="200" width="120" height="70" as="geometry" />
        </mxCell>
        <mxCell id="DA61yKmNvIKPyCM13obE-20" value="NÃO" style="text;html=1;align=center;verticalAlign=middle;whiteSpace=wrap;rounded=0;fillColor=#FFCCCC;fontColor=#FF0000;fontStyle=1;strokeColor=#333333;fontSize=14;" parent="2b4e8129b02d487f-3" vertex="1">
          <mxGeometry x="485" y="274" width="35" height="30" as="geometry" />
        </mxCell>
        <mxCell id="DA61yKmNvIKPyCM13obE-21" style="edgeStyle=orthogonalEdgeStyle;rounded=0;orthogonalLoop=1;jettySize=auto;html=1;entryX=0;entryY=0.5;entryDx=0;entryDy=0;entryPerimeter=0;strokeColor=#333333;fontSize=14;" parent="2b4e8129b02d487f-3" source="DA61yKmNvIKPyCM13obE-8" target="2b4e8129b02d487f-13" edge="1">
          <mxGeometry relative="1" as="geometry" />
        </mxCell>
        <mxCell id="DA61yKmNvIKPyCM13obE-22" value="&lt;font style=&quot;font-size: 14px;&quot;&gt;SOLICITA A DATA DE NASCIMENTO (double-check)&lt;/font&gt;" style="rounded=1;whiteSpace=wrap;html=1;strokeColor=#333333;strokeWidth=1;fontStyle=1;fontSize=14;" parent="2b4e8129b02d487f-3" vertex="1">
          <mxGeometry x="581" y="100" width="149" height="100" as="geometry" />
        </mxCell>
        <mxCell id="2b4e8129b02d487f-31" style="edgeStyle=orthogonalEdgeStyle;rounded=0;html=1;labelBackgroundColor=none;startArrow=none;startFill=0;startSize=5;endArrow=classicThin;endFill=1;endSize=5;jettySize=auto;orthogonalLoop=1;strokeWidth=1;fontFamily=Verdana;fontSize=14;exitX=0.5;exitY=0;exitDx=0;exitDy=0;exitPerimeter=0;entryX=0;entryY=0.5;entryDx=0;entryDy=0;strokeColor=#333333;" parent="2b4e8129b02d487f-3" source="2b4e8129b02d487f-13" target="DA61yKmNvIKPyCM13obE-22" edge="1">
          <mxGeometry relative="1" as="geometry">
            <mxPoint x="565" y="67" as="sourcePoint" />
            <mxPoint x="546" y="30" as="targetPoint" />
            <Array as="points">
              <mxPoint x="486" y="150" />
            </Array>
          </mxGeometry>
        </mxCell>
        <mxCell id="DA61yKmNvIKPyCM13obE-28" value="&lt;font style=&quot;font-size: 14px;&quot;&gt;PERGUNTA O TEMA&lt;/font&gt;" style="rounded=1;whiteSpace=wrap;html=1;strokeColor=#333333;strokeWidth=1;fontStyle=1;fontSize=14;" parent="2b4e8129b02d487f-3" vertex="1">
          <mxGeometry x="856" y="135" width="120" height="60" as="geometry" />
        </mxCell>
        <mxCell id="DA61yKmNvIKPyCM13obE-32" value="SIM" style="text;color=blue;html=1;align=center;verticalAlign=middle;whiteSpace=wrap;rounded=0;fillColor=#CCFFFF;fontStyle=1;fontColor=#0000FF;strokeColor=#333333;fontSize=14;" parent="2b4e8129b02d487f-3" vertex="1">
          <mxGeometry x="485" y="116" width="36" height="30" as="geometry" />
        </mxCell>
        <mxCell id="DA61yKmNvIKPyCM13obE-49" style="edgeStyle=orthogonalEdgeStyle;rounded=0;orthogonalLoop=1;jettySize=auto;html=1;entryX=0;entryY=0.5;entryDx=0;entryDy=0;strokeColor=#333333;fontSize=14;" parent="2b4e8129b02d487f-3" source="DA61yKmNvIKPyCM13obE-46" target="DA61yKmNvIKPyCM13obE-28" edge="1">
          <mxGeometry relative="1" as="geometry" />
        </mxCell>
        <mxCell id="DA61yKmNvIKPyCM13obE-46" value="&lt;span style=&quot;color: rgba(0, 0, 0, 0); font-family: monospace; font-size: 14px; text-align: start; text-wrap: nowrap;&quot;&gt;%3CmxGraphModel%3E%3Croot%3E%3CmxCell%20id%3D%220%22%2F%3E%3CmxCell%20id%3D%221%22%20parent%3D%220%22%2F%3E%3CmxCell%20id%3D%222%22%20value%3D%22N%C3%83O%22%20style%3D%22text%3Bhtml%3D1%3Balign%3Dcenter%3BverticalAlign%3Dmiddle%3BwhiteSpace%3Dwrap%3Brounded%3D0%3B%22%20vertex%3D%221%22%20parent%3D%221%22%3E%3CmxGeometry%20x%3D%22-16%22%20y%3D%22525%22%20width%3D%2260%22%20height%3D%2230%22%20as%3D%22geometry%22%2F%3E%3C%2FmxCell%3E%3C%2Froot%3E%3C%2FmxGraphModel%3E&lt;/span&gt;" style="strokeWidth=1;html=1;shape=mxgraph.flowchart.decision;whiteSpace=wrap;rounded=1;shadow=0;labelBackgroundColor=none;fontFamily=Verdana;fontSize=14;align=center;strokeColor=#333333;fillColor=#ffe196;" parent="2b4e8129b02d487f-3" vertex="1">
          <mxGeometry x="773" y="148.9999999999999" width="30" height="30" as="geometry" />
        </mxCell>
        <mxCell id="DA61yKmNvIKPyCM13obE-57" value="" style="edgeStyle=orthogonalEdgeStyle;rounded=0;orthogonalLoop=1;jettySize=auto;html=1;entryX=0;entryY=0.5;entryDx=0;entryDy=0;entryPerimeter=0;strokeColor=#333333;fontSize=14;" parent="2b4e8129b02d487f-3" source="DA61yKmNvIKPyCM13obE-52" target="DA61yKmNvIKPyCM13obE-58" edge="1">
          <mxGeometry relative="1" as="geometry">
            <mxPoint x="1286" y="162.5" as="targetPoint" />
          </mxGeometry>
        </mxCell>
        <mxCell id="DA61yKmNvIKPyCM13obE-52" value="&lt;font style=&quot;font-size: 14px;&quot;&gt;BENEFICIÁRIO IDENTIFICADO É TITULAR ?&lt;/font&gt;" style="whiteSpace=wrap;html=1;rounded=1;strokeColor=#333333;fontStyle=1;fontSize=14;" parent="2b4e8129b02d487f-3" vertex="1">
          <mxGeometry x="1030" y="135" width="156" height="75" as="geometry" />
        </mxCell>
        <mxCell id="DA61yKmNvIKPyCM13obE-74" value="" style="edgeStyle=orthogonalEdgeStyle;rounded=0;orthogonalLoop=1;jettySize=auto;html=1;entryX=0;entryY=0.5;entryDx=0;entryDy=0;exitX=0.5;exitY=0;exitDx=0;exitDy=0;exitPerimeter=0;strokeColor=#333333;fontSize=14;" parent="2b4e8129b02d487f-3" source="DA61yKmNvIKPyCM13obE-58" target="DA61yKmNvIKPyCM13obE-73" edge="1">
          <mxGeometry relative="1" as="geometry" />
        </mxCell>
        <mxCell id="DA61yKmNvIKPyCM13obE-76" value="" style="edgeStyle=orthogonalEdgeStyle;rounded=0;orthogonalLoop=1;jettySize=auto;html=1;exitX=0.5;exitY=1;exitDx=0;exitDy=0;exitPerimeter=0;entryX=0;entryY=0.5;entryDx=0;entryDy=0;strokeColor=#333333;fontSize=14;" parent="2b4e8129b02d487f-3" source="DA61yKmNvIKPyCM13obE-58" target="DA61yKmNvIKPyCM13obE-75" edge="1">
          <mxGeometry relative="1" as="geometry" />
        </mxCell>
        <mxCell id="DA61yKmNvIKPyCM13obE-58" value="&lt;span style=&quot;color: rgba(0, 0, 0, 0); font-family: monospace; font-size: 14px; text-align: start; text-wrap: nowrap;&quot;&gt;%3CmxGraphModel%3E%3Croot%3E%3CmxCell%20id%3D%220%22%2F%3E%3CmxCell%20id%3D%221%22%20parent%3D%220%22%2F%3E%3CmxCell%20id%3D%222%22%20value%3D%22N%C3%83O%22%20style%3D%22text%3Bhtml%3D1%3Balign%3Dcenter%3BverticalAlign%3Dmiddle%3BwhiteSpace%3Dwrap%3Brounded%3D0%3B%22%20vertex%3D%221%22%20parent%3D%221%22%3E%3CmxGeometry%20x%3D%22-16%22%20y%3D%22525%22%20width%3D%2260%22%20height%3D%2230%22%20as%3D%22geometry%22%2F%3E%3C%2FmxCell%3E%3C%2Froot%3E%3C%2FmxGraphModel%3E&lt;/span&gt;" style="strokeWidth=1;html=1;shape=mxgraph.flowchart.decision;whiteSpace=wrap;rounded=1;shadow=0;labelBackgroundColor=none;fontFamily=Verdana;fontSize=14;align=center;strokeColor=#82b366;fillColor=#FFE196;" parent="2b4e8129b02d487f-3" vertex="1">
          <mxGeometry x="1261" y="148.9999999999999" width="30" height="30" as="geometry" />
        </mxCell>
        <mxCell id="DA61yKmNvIKPyCM13obE-73" value="&lt;font style=&quot;font-size: 14px;&quot;&gt;GERAÇÃO DO BENEFICIÁRIO IDENTIFICADO OU DO DEPENDENTE?&lt;/font&gt;" style="whiteSpace=wrap;html=1;fontSize=14;fontFamily=Verdana;strokeWidth=1;rounded=1;shadow=0;labelBackgroundColor=none;strokeColor=#333333;fontStyle=1" parent="2b4e8129b02d487f-3" vertex="1">
          <mxGeometry x="1332" y="45" width="188" height="85" as="geometry" />
        </mxCell>
        <mxCell id="DA61yKmNvIKPyCM13obE-80" value="" style="edgeStyle=orthogonalEdgeStyle;rounded=0;orthogonalLoop=1;jettySize=auto;html=1;entryX=0;entryY=0.5;entryDx=0;entryDy=0;entryPerimeter=0;strokeColor=#333333;fontSize=14;" parent="2b4e8129b02d487f-3" source="DA61yKmNvIKPyCM13obE-75" target="DA61yKmNvIKPyCM13obE-83" edge="1">
          <mxGeometry relative="1" as="geometry">
            <mxPoint x="1555" y="250" as="targetPoint" />
          </mxGeometry>
        </mxCell>
        <mxCell id="DA61yKmNvIKPyCM13obE-75" value="&lt;font style=&quot;font-size: 14px;&quot;&gt;DEPENDENTE PASSOU PELO DOUBLE CHECK ?&lt;/font&gt;" style="whiteSpace=wrap;html=1;fontSize=14;fontFamily=Verdana;strokeWidth=1;rounded=1;shadow=0;labelBackgroundColor=none;strokeColor=#333333;fontStyle=1" parent="2b4e8129b02d487f-3" vertex="1">
          <mxGeometry x="1335" y="220" width="145" height="80" as="geometry" />
        </mxCell>
        <mxCell id="DA61yKmNvIKPyCM13obE-89" value="" style="edgeStyle=orthogonalEdgeStyle;rounded=0;orthogonalLoop=1;jettySize=auto;html=1;exitX=0.5;exitY=1;exitDx=0;exitDy=0;exitPerimeter=0;entryX=0;entryY=0.5;entryDx=0;entryDy=0;strokeColor=#333333;fontSize=14;" parent="2b4e8129b02d487f-3" source="DA61yKmNvIKPyCM13obE-83" target="DA61yKmNvIKPyCM13obE-88" edge="1">
          <mxGeometry relative="1" as="geometry" />
        </mxCell>
        <mxCell id="DA61yKmNvIKPyCM13obE-97" value="" style="edgeStyle=orthogonalEdgeStyle;rounded=0;orthogonalLoop=1;jettySize=auto;html=1;strokeColor=#333333;fontSize=14;exitX=0.5;exitY=0;exitDx=0;exitDy=0;exitPerimeter=0;" parent="2b4e8129b02d487f-3" source="DA61yKmNvIKPyCM13obE-83" edge="1">
          <mxGeometry relative="1" as="geometry">
            <mxPoint x="2253" y="179" as="targetPoint" />
            <Array as="points">
              <mxPoint x="1600" y="179" />
              <mxPoint x="1910" y="179" />
              <mxPoint x="1910" y="182" />
              <mxPoint x="2233" y="182" />
              <mxPoint x="2233" y="179" />
            </Array>
            <mxPoint x="1613" y="236" as="sourcePoint" />
          </mxGeometry>
        </mxCell>
        <mxCell id="DA61yKmNvIKPyCM13obE-83" value="&lt;span style=&quot;color: rgba(0, 0, 0, 0); font-family: monospace; font-size: 14px; text-align: start; text-wrap: nowrap;&quot;&gt;%3CmxGraphModel%3E%3Croot%3E%3CmxCell%20id%3D%220%22%2F%3E%3CmxCell%20id%3D%221%22%20parent%3D%220%22%2F%3E%3CmxCell%20id%3D%222%22%20value%3D%22N%C3%83O%22%20style%3D%22text%3Bhtml%3D1%3Balign%3Dcenter%3BverticalAlign%3Dmiddle%3BwhiteSpace%3Dwrap%3Brounded%3D0%3B%22%20vertex%3D%221%22%20parent%3D%221%22%3E%3CmxGeometry%20x%3D%22-16%22%20y%3D%22525%22%20width%3D%2260%22%20height%3D%2230%22%20as%3D%22geometry%22%2F%3E%3C%2FmxCell%3E%3C%2Froot%3E%3C%2FmxGraphModel%3E&lt;/span&gt;" style="strokeWidth=1;html=1;shape=mxgraph.flowchart.decision;whiteSpace=wrap;rounded=1;shadow=0;labelBackgroundColor=none;fontFamily=Verdana;fontSize=14;align=center;strokeColor=#333333;fillColor=#FFE196;" parent="2b4e8129b02d487f-3" vertex="1">
          <mxGeometry x="1585" y="234.9999999999999" width="30" height="30" as="geometry" />
        </mxCell>
        <mxCell id="DA61yKmNvIKPyCM13obE-88" value="&lt;font style=&quot;font-size: 14px;&quot;&gt;SOLICITA A DATA DE NASCIMENTO&lt;/font&gt;" style="whiteSpace=wrap;html=1;fontSize=14;fontFamily=Verdana;strokeWidth=1;rounded=1;shadow=0;labelBackgroundColor=none;strokeColor=#333333;fontStyle=1" parent="2b4e8129b02d487f-3" vertex="1">
          <mxGeometry x="1860" y="289" width="138" height="81" as="geometry" />
        </mxCell>
        <mxCell id="DA61yKmNvIKPyCM13obE-94" value="&lt;font style=&quot;font-size: 14px;&quot;&gt;GERA O CARTÃO/TOKEN E ENVIA&lt;/font&gt;" style="whiteSpace=wrap;html=1;fontSize=14;fontFamily=Verdana;strokeWidth=1;rounded=1;shadow=0;labelBackgroundColor=none;strokeColor=#333333;fontStyle=1" parent="2b4e8129b02d487f-3" vertex="1">
          <mxGeometry x="2253" y="122" width="140" height="87" as="geometry" />
        </mxCell>
        <mxCell id="DA61yKmNvIKPyCM13obE-210" value="SIM" style="text;color=blue;html=1;align=center;verticalAlign=middle;whiteSpace=wrap;rounded=0;fillColor=#CCFFFF;fontStyle=1;fontColor=#0000FF;strokeColor=#333333;fontSize=14;" parent="2b4e8129b02d487f-3" vertex="1">
          <mxGeometry x="1537" y="190" width="36" height="30" as="geometry" />
        </mxCell>
        <mxCell id="DA61yKmNvIKPyCM13obE-211" value="NÃO" style="text;html=1;align=center;verticalAlign=middle;whiteSpace=wrap;rounded=0;fillColor=#FFCCCC;fontColor=#FF0000;fontStyle=1;strokeColor=#333333;fontSize=14;" parent="2b4e8129b02d487f-3" vertex="1">
          <mxGeometry x="1538" y="289" width="35" height="30" as="geometry" />
        </mxCell>
        <mxCell id="DA61yKmNvIKPyCM13obE-212" value="SIM" style="text;color=blue;html=1;align=center;verticalAlign=middle;whiteSpace=wrap;rounded=0;fillColor=#CCFFFF;fontStyle=1;fontColor=#0000FF;strokeColor=#333333;fontSize=14;" parent="2b4e8129b02d487f-3" vertex="1">
          <mxGeometry x="1232" y="86" width="36" height="30" as="geometry" />
        </mxCell>
        <mxCell id="DA61yKmNvIKPyCM13obE-213" value="NÃO" style="text;html=1;align=center;verticalAlign=middle;whiteSpace=wrap;rounded=0;fillColor=#FFCCCC;fontColor=#FF0000;fontStyle=1;strokeColor=#333333;fontSize=14;" parent="2b4e8129b02d487f-3" vertex="1">
          <mxGeometry x="1232" y="220" width="35" height="30" as="geometry" />
        </mxCell>
        <mxCell id="Ahk2WvtnSABUMaK_UGT0-9" value="&lt;div style=&quot;&quot;&gt;&lt;span style=&quot;background-color: initial;&quot;&gt;&lt;b&gt;O token deverá ser atualizado automaticamente após o período de expiração.&lt;/b&gt;&lt;/span&gt;&lt;/div&gt;" style="rounded=0;whiteSpace=wrap;html=1;fillColor=#fff2cc;strokeColor=#d6b656;align=left;" parent="2b4e8129b02d487f-3" vertex="1">
          <mxGeometry x="2340" y="195" width="170" height="115" as="geometry" />
        </mxCell>
        <mxCell id="Ahk2WvtnSABUMaK_UGT0-12" value="Caso os dados do beneficiário estejam desatualizados a mais de 01 ano, o Boot irá perguntar se deseja a atualização, antes da escolha do tema." style="rounded=0;whiteSpace=wrap;html=1;fillColor=#fff2cc;strokeColor=#d6b656;fontStyle=1" parent="2b4e8129b02d487f-3" vertex="1">
          <mxGeometry x="810" y="185" width="160" height="115" as="geometry" />
        </mxCell>
        <mxCell id="DA61yKmNvIKPyCM13obE-146" value="TITULAR" style="text;html=1;align=center;verticalAlign=middle;whiteSpace=wrap;rounded=0;fillColor=#CCFF99;fontStyle=1;strokeColor=#333333;fontSize=14;" parent="1" vertex="1">
          <mxGeometry x="878" y="270" width="76" height="30" as="geometry" />
        </mxCell>
      </root>
    </mxGraphModel>
  </diagram>
</mxfile>
